<?xml version="1.0" encoding="UTF-8" standalone="no"?>
<svg
   xmlns:dc="http://purl.org/dc/elements/1.1/"
   xmlns:cc="http://creativecommons.org/ns#"
   xmlns:rdf="http://www.w3.org/1999/02/22-rdf-syntax-ns#"
   xmlns:svg="http://www.w3.org/2000/svg"
   xmlns="http://www.w3.org/2000/svg"
   xmlns:sodipodi="http://sodipodi.sourceforge.net/DTD/sodipodi-0.dtd"
   xmlns:inkscape="http://www.inkscape.org/namespaces/inkscape"
   width="64"
   height="64"
   version="1"
   id="svg12"
   sodipodi:docname="monitor.svg"
   inkscape:version="0.92.2 2405546, 2018-03-11">
  <metadata
     id="metadata18">
    <rdf:RDF>
      <cc:Work
         rdf:about="">
        <dc:format>image/svg+xml</dc:format>
        <dc:type
           rdf:resource="http://purl.org/dc/dcmitype/StillImage" />
        <dc:title></dc:title>
      </cc:Work>
    </rdf:RDF>
  </metadata>
  <defs
     id="defs16" />
  <sodipodi:namedview
     pagecolor="#ffffff"
     bordercolor="#666666"
     borderopacity="1"
     objecttolerance="10"
     gridtolerance="10"
     guidetolerance="10"
     inkscape:pageopacity="0"
     inkscape:pageshadow="2"
     inkscape:window-width="1366"
     inkscape:window-height="726"
     id="namedview14"
     showgrid="false"
     inkscape:zoom="3.6875"
     inkscape:cx="-26.033898"
     inkscape:cy="29.830508"
     inkscape:window-x="0"
     inkscape:window-y="21"
     inkscape:window-maximized="0"
     inkscape:current-layer="svg12" />
  <path
     style="opacity:.2"
     d="m8.5999998 7.0000002h46.8c1.4404 0 2.6 1.1527948 2.6 2.5847418v46.830516c0 1.431948-1.1596 2.584742-2.6 2.584742h-46.8c-1.4404 0-2.6-1.152794-2.6-2.584742v-46.830516c0-1.431947 1.1596-2.5847418 2.6-2.5847418z"
     id="path2" />
  <path
     style="fill:#ffffff;fill-opacity:1"
     d="m8.5999998 6.0000002h46.8c1.4404 0 2.6 1.152795 2.6 2.584742v46.830516c0 1.431948-1.1596 2.584742-2.6 2.584742h-46.8c-1.4404 0-2.6-1.152794-2.6-2.584742v-46.830516c0-1.431947 1.1596-2.584742 2.6-2.584742z"
     id="path4" />
  <path
     style="opacity:.2;stroke-linejoin:round;stroke:#000000;stroke-linecap:round;stroke-width:6;fill:none"
     d="m5 33.000686h18l6.263214-14 5.473572 28 6.263214-14h18"
     id="path6" />
  <path
     style="stroke-linejoin:round;stroke:#0000ff;stroke-linecap:round;stroke-width:6;fill:#ffffff;fill-opacity:1;stroke-opacity:1;stroke-miterlimit:4;stroke-dasharray:none;paint-order:normal"
     d="m5 32h18l6.263214-14 5.473572 28 6.263214-14h18"
     id="path8" />
  <path
     style="opacity:.1;fill:#ffffff"
     d="m8.6015625 6c-1.4404 0-2.6015625 1.1539903-2.6015625 2.5859375v1c0-1.4319472 1.1611625-2.5859375 2.6015625-2.5859375h46.796876c1.4404 0 2.601562 1.1539905 2.601562 2.5859375v-1c0-1.431947-1.161162-2.5859375-2.601562-2.5859375h-46.796876z"
     id="path10" />
</svg>
